<svg width="11" height="12" viewBox="0 0 11 12" fill="none" xmlns="http://www.w3.org/2000/svg">
<g clip-path="url(#clip0_15_1616)">
<path d="M10.3489 7.15917C9.97717 6.78415 9.48593 6.55575 8.9645 6.50751C9.41463 6.10253 9.69863 5.51789 9.69863 4.8648C9.69863 3.64299 8.70854 2.65289 7.48649 2.65289C6.31934 2.65289 5.36371 3.55695 5.28076 4.70271C6.3191 5.15189 7.04777 6.18667 7.04777 7.38804C7.04777 7.82676 6.94795 8.2555 6.76234 8.64455C7.0297 8.7843 7.27616 8.96492 7.491 9.18166C8.0419 9.73636 8.3549 10.5033 8.34896 11.2852L8.34848 11.3011L8.34801 11.3147L8.32852 11.6847H10.9782L11.0001 8.75435C11.0046 8.15664 10.7705 7.5834 10.3489 7.15917Z" fill="#9A98AC"/>
<path d="M5.60069 9.03121C6.05059 8.62647 6.33554 8.04159 6.33554 7.3885C6.33554 6.16645 5.34497 5.17612 4.12316 5.17612C2.90111 5.17612 1.91078 6.16645 1.91078 7.3885C1.91078 8.0404 2.19454 8.62481 2.64372 9.02978C1.49345 9.1189 0.58487 10.0714 0.576552 11.2443L0.554688 11.6847H3.9183H7.61463L7.63649 11.2773C7.64077 10.6799 7.40644 10.1066 6.98507 9.6824C6.61289 9.30713 6.12188 9.07945 5.60069 9.03121Z" fill="#9A98AC"/>
<path d="M1.51773 3.5213V4.34313C1.51773 4.68346 1.79437 4.95986 2.13494 4.95986C2.47598 4.95986 2.75214 4.68346 2.75214 4.34313V3.5213H3.57302C3.91359 3.5213 4.18999 3.24466 4.18999 2.90409C4.18999 2.56376 3.91359 2.28713 3.57302 2.28713H2.75214V1.47742C2.75214 1.13685 2.47598 0.860687 2.13494 0.860687C1.79437 0.860687 1.51773 1.13685 1.51773 1.47742V2.28689H0.707787C0.366744 2.28689 0.0908203 2.56352 0.0908203 2.90385C0.0908203 3.24442 0.366744 3.52106 0.707787 3.52106H1.51773V3.5213Z" fill="#9A98AC"/>
</g>
<defs>
<clipPath id="clip0_15_1616">
<rect width="10.9091" height="10.9091" fill="white" transform="translate(0.0908203 0.818146)"/>
</clipPath>
</defs>
</svg>
