<svg width="9" height="10" viewBox="0 0 9 10" fill="none" xmlns="http://www.w3.org/2000/svg">
<g clip-path="url(#clip0_15_1744)">
<path d="M5.71775 8.92245C5.48265 9.18368 5.10429 9.18368 4.86918 8.92245C4.75163 8.79184 4.69286 8.62245 4.69286 8.45103C4.69286 8.2796 4.75163 8.11021 4.86918 7.9796L6.95204 5.66735L0.600613 5.66735C0.27 5.66735 7.95055e-08 5.36939 9.56519e-08 5C1.11798e-07 4.63062 0.268164 4.33266 0.600613 4.33266L6.95204 4.33266L4.86918 2.02041C4.63408 1.75919 4.63408 1.33878 4.86918 1.07756C5.10429 0.816331 5.48265 0.816331 5.71776 1.07756L8.82367 4.52858C8.93755 4.65307 9 4.82245 9 5.00001C9 5.17756 8.93755 5.34694 8.82367 5.47143L5.71775 8.92245Z" fill="#9A98AC"/>
</g>
<defs>
<clipPath id="clip0_15_1744">
<rect width="10" height="9" fill="white" transform="translate(9) rotate(90)"/>
</clipPath>
</defs>
</svg>
