<svg width="25" height="25" viewBox="0 0 25 25" fill="none" xmlns="http://www.w3.org/2000/svg">
<g clip-path="url(#clip0_15_1970)">
<path d="M8.43258 20.3493L18.5 10.2818L13.7182 5.5L3.65075 15.5674C3.51215 15.7062 3.4137 15.8799 3.36583 16.0701L2.25 21.75L7.92883 20.6342C8.1195 20.5865 8.29392 20.4879 8.43258 20.3493V20.3493ZM21.75 7.03184C22.1562 6.62553 22.3844 6.07452 22.3844 5.5C22.3844 4.92548 22.1562 4.37448 21.75 3.96817L20.0318 2.25C19.6255 1.84381 19.0745 1.61563 18.5 1.61563C17.9255 1.61563 17.3745 1.84381 16.9682 2.25L15.25 3.96817L20.0318 8.75L21.75 7.03184Z" fill="#7974A5"/>
</g>
<defs>
<clipPath id="clip0_15_1970">
<rect width="25" height="25" fill="white"/>
</clipPath>
</defs>
</svg>
