<svg width="25" height="25" viewBox="0 0 25 25" fill="none" xmlns="http://www.w3.org/2000/svg">
<path d="M19.7872 6.47107H15.049C13.8978 6.47107 12.9584 5.59961 12.9584 4.52288C12.9584 4.23239 12.7091 4 12.3973 4H6.2128C4.44223 4 3 5.34398 3 6.99395V17.0061C3 18.656 4.44223 20 6.2128 20H19.7872C21.5578 20 23 18.656 23 17.0061V9.46115C23 7.81118 21.5578 6.47107 19.7872 6.47107ZM21.8778 17.0022C21.8778 18.075 20.9426 18.9504 19.7872 18.9504H6.2128C5.06151 18.9504 4.12219 18.0789 4.12219 17.0022V6.99395C4.12219 5.92108 5.05736 5.04575 6.2128 5.04575H11.8861C12.1521 6.44783 13.4697 7.51682 15.049 7.51682H19.7872C20.9385 7.51682 21.8778 8.38828 21.8778 9.46502V17.0022Z" fill="#7974A5"/>
<path d="M21.8778 17.0022C21.8778 18.075 20.9426 18.9504 19.7872 18.9504H6.2128C5.06151 18.9504 4.12219 18.0789 4.12219 17.0022V6.99395C4.12219 5.92108 5.05736 5.04575 6.2128 5.04575H11.8861C12.1521 6.44783 13.4697 7.51682 15.049 7.51682H19.7872C20.9385 7.51682 21.8778 8.38828 21.8778 9.46502V17.0022Z" fill="#7974A5"/>
</svg>
