<svg width="25" height="25" viewBox="0 0 25 25" fill="none" xmlns="http://www.w3.org/2000/svg">
<path d="M5.47828 9.53188H6.00495V6.60387C6.00495 2.96237 8.91842 0 12.4999 0C16.0811 0 18.9947 2.96237 18.9947 6.60387V9.53188H19.5217C20.8904 9.53188 22 10.66 22 12.0518V19.8754C22 22.7056 19.7436 25 16.9601 25H8.03992C5.25638 25 3 22.7056 3 19.8754V12.0518C3 10.66 4.1095 9.53188 5.47828 9.53188ZM11.5772 17.3181V20.5009C11.5772 21.019 11.9904 21.4391 12.4999 21.4391C13.0095 21.4391 13.4227 21.019 13.4227 20.5009V17.3181C14.1257 16.9696 14.6111 16.2383 14.6111 15.3896C14.6111 14.2041 13.6659 13.2429 12.4999 13.2429C11.3339 13.2429 10.3886 14.204 10.3886 15.3896C10.3886 16.2383 10.8743 16.9697 11.5772 17.3181ZM8.35377 9.53188H16.6456V6.60387C16.6456 4.27937 14.7858 2.38825 12.4998 2.38825C10.2136 2.38825 8.35377 4.27937 8.35377 6.60387V9.53188Z" fill="#7974A5"/>
</svg>
