<svg width="25" height="25" viewBox="0 0 25 25" fill="none" xmlns="http://www.w3.org/2000/svg">
<path d="M22.033 9.95918H20.7922C20.6057 9.27891 20.3243 8.58599 19.9625 7.96918L20.876 7.06027C21.2758 6.66184 21.2759 6.01646 20.876 5.61796L19.4605 4.20755C19.2685 4.01619 19.0081 3.90884 18.7366 3.90884C18.465 3.90884 18.2046 4.01639 18.0126 4.20782L17.09 5.10946C16.4547 4.73401 15.7646 4.44306 15.0138 4.25293V3.02041C15.0138 2.45687 14.5912 2 14.0256 2H12.0238C11.4583 2 10.9864 2.45687 10.9864 3.02041V4.25293C10.3038 4.43551 9.62501 4.71068 9.01067 5.06469L8.16507 4.21857C7.76527 3.82014 7.11858 3.82014 6.71878 4.21857L5.30404 5.62932C4.90417 6.02776 4.90458 6.67388 5.30444 7.07238L6.13155 7.89354C5.74806 8.53116 5.45127 9.21088 5.25714 9.95918H4.04662C3.48116 9.95918 3 10.4219 3 10.9854V12.9805C3 13.5441 3.48116 13.9728 4.04662 13.9728H5.24888C5.4396 14.7211 5.73312 15.4157 6.1125 16.0533L5.29414 16.8759C4.89427 17.2744 4.89427 17.924 5.29414 18.3225L6.70964 19.735C6.90957 19.9342 7.17162 20.0347 7.4336 20.0347C7.69558 20.0347 7.9577 19.9355 8.15756 19.7363L8.97804 18.9121C9.60146 19.2752 10.2355 19.5575 10.9863 19.7433V20.9456C10.9863 21.5091 11.4582 22 12.0236 22H14.0255C14.591 22 15.0136 21.5091 15.0136 20.9456V19.7433C15.7645 19.5499 16.4782 19.2524 17.1224 18.8676L18.0142 19.7474C18.2142 19.9467 18.4807 20.0463 18.7427 20.0463C19.0048 20.0463 19.2691 19.9467 19.4689 19.7474L20.8856 18.3367C21.2855 17.9383 21.2861 17.2922 20.8861 16.8937L19.9814 15.9777C20.3392 15.361 20.6172 14.7212 20.8003 13.9729H22.033C22.5984 13.9729 23 13.5441 23 12.9806V10.9855C23.0001 10.4219 22.5985 9.95918 22.033 9.95918ZM16.0046 11.9982C16.0046 13.6356 14.6678 14.9678 13.0247 14.9678C11.3817 14.9678 10.0449 13.6356 10.0449 11.9982C10.0449 10.3607 11.3817 9.0285 13.0247 9.0285C14.6678 9.0285 16.0046 10.3606 16.0046 11.9982Z" fill="#7974A5"/>
</svg>
