<svg width="57" height="61" viewBox="0 0 57 61" fill="none" xmlns="http://www.w3.org/2000/svg">
<g filter="url(#filter0_d_15_1821)">
<path d="M36.9525 32.3977L35.7273 28.7161L36.9643 24.9986C37.0299 24.8014 37.0014 24.5826 36.8874 24.4117C36.7735 24.2409 36.5886 24.1393 36.3914 24.1393C36.3914 24.1393 30.5079 24.1393 30.1369 24.1393C29.7509 24.1393 29.7694 23.9127 29.7694 23.9127C29.7694 22.4964 28.9475 21.8644 28.0005 21.8644H22.815C22.9331 21.6723 22.9998 21.4449 22.9998 21.2065C22.9998 20.5412 22.4898 20 21.8628 20H21.137C20.5101 20 20 20.5412 20 21.2065C20 21.6244 20.2045 22.0089 20.5322 22.2276V40.4844H22.4676V32.1832H28.0562C28.1492 32.1832 28.318 32.2128 28.318 32.4912V32.5227C28.318 32.948 28.6429 33.2928 29.0437 33.2928C29.0445 33.2928 29.045 33.2927 29.0458 33.2927C29.0465 33.2927 29.0471 33.2928 29.0478 33.2928H36.3915C36.3918 33.2928 36.3921 33.2928 36.3925 33.2928C36.728 33.2928 37 33.0042 37 32.6482C37 32.5594 36.9831 32.4747 36.9525 32.3977Z" fill="#FEF904"/>
</g>
<defs>
<filter id="filter0_d_15_1821" x="0" y="0" width="57" height="60.4844" filterUnits="userSpaceOnUse" color-interpolation-filters="sRGB">
<feFlood flood-opacity="0" result="BackgroundImageFix"/>
<feColorMatrix in="SourceAlpha" type="matrix" values="0 0 0 0 0 0 0 0 0 0 0 0 0 0 0 0 0 0 127 0" result="hardAlpha"/>
<feOffset/>
<feGaussianBlur stdDeviation="10"/>
<feComposite in2="hardAlpha" operator="out"/>
<feColorMatrix type="matrix" values="0 0 0 0 0.996078 0 0 0 0 0.976471 0 0 0 0 0.0156863 0 0 0 0.5 0"/>
<feBlend mode="normal" in2="BackgroundImageFix" result="effect1_dropShadow_15_1821"/>
<feBlend mode="normal" in="SourceGraphic" in2="effect1_dropShadow_15_1821" result="shape"/>
</filter>
</defs>
</svg>
