<svg width="51" height="61" viewBox="0 0 51 61" fill="none" xmlns="http://www.w3.org/2000/svg">
<g filter="url(#filter0_d_15_1797)">
<path d="M30.9541 20.186C30.8923 20.0709 30.7778 20 30.6538 20H23.5178C23.3692 20 23.2372 20.1013 23.1897 20.2518L20.1314 29.9421C20.0958 30.0551 20.1133 30.1795 20.1783 30.2764C20.2433 30.3732 20.348 30.4307 20.4595 30.4307H23.3587L20.0219 39.9847C19.9629 40.1536 20.0263 40.3434 20.1721 40.4341C20.2266 40.468 20.2866 40.4844 20.3461 40.4844C20.4458 40.4844 20.544 40.4384 20.6118 40.3517L29.8999 28.4812C29.9862 28.3709 30.005 28.2172 29.9481 28.0869C29.8912 27.9567 29.7689 27.8734 29.6344 27.8734H26.953L30.9527 20.5571C31.0153 20.4426 31.0158 20.301 30.9541 20.186ZM26.0506 28.0567C25.988 28.1712 25.9875 28.3127 26.0492 28.4278C26.111 28.5428 26.2255 28.6138 26.3495 28.6138H28.8933L21.3777 38.2191L24.1819 30.19C24.2216 30.0764 24.2067 29.9491 24.142 29.8494C24.0773 29.7498 23.971 29.6903 23.8576 29.6903H20.9417L23.7663 20.7404H30.0504L26.0506 28.0567Z" fill="#FA73A3"/>
<path d="M26.0506 28.0567C25.988 28.1712 25.9875 28.3127 26.0492 28.4278C26.111 28.5428 26.2255 28.6138 26.3495 28.6138H28.8933L21.3777 38.2191L24.1819 30.19C24.2216 30.0764 24.2067 29.9491 24.142 29.8494C24.0773 29.7498 23.971 29.6903 23.8576 29.6903H20.9417L23.7663 20.7404H30.0504L26.0506 28.0567Z" fill="#FA73A3"/>
</g>
<defs>
<filter id="filter0_d_15_1797" x="0" y="0" width="51" height="60.4844" filterUnits="userSpaceOnUse" color-interpolation-filters="sRGB">
<feFlood flood-opacity="0" result="BackgroundImageFix"/>
<feColorMatrix in="SourceAlpha" type="matrix" values="0 0 0 0 0 0 0 0 0 0 0 0 0 0 0 0 0 0 127 0" result="hardAlpha"/>
<feOffset/>
<feGaussianBlur stdDeviation="10"/>
<feComposite in2="hardAlpha" operator="out"/>
<feColorMatrix type="matrix" values="0 0 0 0 0.980392 0 0 0 0 0.45098 0 0 0 0 0.639216 0 0 0 0.5 0"/>
<feBlend mode="normal" in2="BackgroundImageFix" result="effect1_dropShadow_15_1797"/>
<feBlend mode="normal" in="SourceGraphic" in2="effect1_dropShadow_15_1797" result="shape"/>
</filter>
</defs>
</svg>
