<svg width="18" height="18" viewBox="0 0 18 18" fill="none" xmlns="http://www.w3.org/2000/svg">
<g clip-path="url(#clip0_15_1835)">
<path d="M8.88215 0.151337H8.85802C5.93802 0.151337 3.5625 2.52606 3.5625 5.44495C3.5625 7.35827 4.43386 9.88339 6.15236 12.9503C7.42646 15.224 8.71841 16.9654 8.73135 16.9827C8.76731 17.031 8.824 17.0595 8.88405 17.0595C8.88576 17.0595 8.88751 17.0595 8.88922 17.0594C8.95118 17.0577 9.00838 17.026 9.04275 16.9743C9.05549 16.9551 10.3382 15.018 11.6037 12.6487C13.3117 9.45081 14.1777 7.02706 14.1777 5.44495C14.1776 2.52602 11.8021 0.151337 8.88215 0.151337ZM11.3265 5.57431C11.3265 6.92882 10.2246 8.03072 8.87004 8.03072C7.51557 8.03072 6.41363 6.92878 6.41363 5.57431C6.41363 4.21984 7.51557 3.1179 8.87004 3.1179C10.2246 3.1179 11.3265 4.21984 11.3265 5.57431Z" fill="#7974A5"/>
</g>
<defs>
<clipPath id="clip0_15_1835">
<rect width="16.9081" height="16.9081" fill="white" transform="translate(0.416016 0.151337)"/>
</clipPath>
</defs>
</svg>
