<svg width="15" height="14" viewBox="0 0 15 14" fill="none" xmlns="http://www.w3.org/2000/svg">
<g clip-path="url(#clip0_15_1582)">
<path d="M9.46453 12.1193H1.75835V1.88099H9.46484C9.63566 1.88099 9.7743 1.75159 9.7743 1.59216V0.528545C9.7743 0.369111 9.63566 0.239716 9.46484 0.239716H0.30946C0.138638 0.239716 0 0.369111 0 0.528545V13.4714C0 13.6309 0.138638 13.7603 0.30946 13.7603H9.46453C9.63551 13.7603 9.77399 13.6309 9.77399 13.4714V12.4081C9.77399 12.2484 9.63566 12.1193 9.46453 12.1193Z" fill="#9A98AC"/>
<path d="M14.9092 6.79587L10.7436 2.90822C10.6275 2.79977 10.422 2.79991 10.306 2.90822L9.31772 3.83074C9.19687 3.94353 9.19687 4.12636 9.31772 4.23915L11.1992 5.99552H3.05409C2.88327 5.99552 2.74463 6.12492 2.74463 6.28435V7.71579C2.74463 7.87522 2.88327 8.00462 3.05409 8.00462H11.1997L9.31818 9.76099C9.19734 9.87378 9.19734 10.0566 9.31818 10.1694L10.3064 11.0921C10.3645 11.1462 10.4434 11.1767 10.5252 11.1767C10.6074 11.1767 10.686 11.1462 10.744 11.0921L14.9097 7.20442C14.9677 7.15026 15.0003 7.07661 15.0003 7.00021C15.0002 6.92339 14.9672 6.85002 14.9092 6.79587Z" fill="#9A98AC"/>
</g>
<defs>
<clipPath id="clip0_15_1582">
<rect width="15" height="14" fill="white"/>
</clipPath>
</defs>
</svg>
