<svg width="12" height="13" viewBox="0 0 12 13" fill="none" xmlns="http://www.w3.org/2000/svg">
<path d="M11.0755 11.1273L10.9532 11.011C10.6065 10.678 10.303 10.296 10.051 9.87549C9.7757 9.29514 9.61071 8.66137 9.56569 8.01136V6.09685C9.56807 5.07588 9.22456 4.08912 8.5997 3.32196C7.97485 2.5548 7.11165 2.06004 6.1723 1.93066V1.43071C6.1723 1.29349 6.12174 1.1619 6.03175 1.06487C5.94175 0.96784 5.81969 0.91333 5.69241 0.91333C5.56514 0.91333 5.44307 0.96784 5.35308 1.06487C5.26308 1.1619 5.21252 1.29349 5.21252 1.43071V1.93841C4.28159 2.07712 3.42882 2.57487 2.81218 3.33945C2.19553 4.10403 1.85678 5.08365 1.85867 6.09685V8.01136C1.81365 8.66137 1.64866 9.29514 1.37339 9.87549C1.12567 10.295 0.827066 10.6768 0.485501 11.011L0.363281 11.1273V12.2202H11.0755V11.1273Z" fill="white"/>
<circle cx="9.5" cy="1.5" r="1.5" fill="#FA72A3"/>
</svg>
