<svg width="137" height="137" viewBox="0 0 137 137" fill="none" xmlns="http://www.w3.org/2000/svg">
<path d="M135 68C135 50.7294 128.23 34.1469 116.144 21.8106C104.057 9.47422 87.6165 2.36696 70.3496 2.0138C53.0827 1.66064 36.3652 8.08973 23.7843 19.9216C11.2033 31.7534 3.76136 48.0452 3.05519 65.3014C2.34903 82.5575 8.43492 99.4029 20.007 112.223C31.5791 125.043 47.7154 132.817 64.9534 133.876C82.1915 134.935 99.1579 129.195 112.212 117.887C125.266 106.58 133.368 90.6056 134.779 73.3928L129.517 72.9613C128.219 88.7971 120.765 103.493 108.755 113.896C96.7453 124.299 81.1362 129.58 65.2772 128.606C49.4182 127.632 34.5728 120.48 23.9265 108.685C13.2801 96.8907 7.6811 81.3929 8.33078 65.5173C8.98045 49.6416 15.8271 34.6531 27.4015 23.7678C38.976 12.8825 54.356 6.96779 70.2416 7.29269C86.1272 7.6176 101.253 14.1563 112.372 25.5057C123.492 36.8552 129.72 52.1111 129.72 68H135Z" fill="#373555"/>
<g filter="url(#filter0_bd_19_1986)">
<path d="M3 68C3 81.0536 6.87083 93.814 14.123 104.668C21.3752 115.521 31.683 123.981 43.7429 128.976C55.8028 133.971 69.0732 135.278 81.876 132.732C94.6787 130.185 106.439 123.899 115.669 114.669C124.899 105.439 131.185 93.6787 133.732 80.876C136.278 68.0732 134.971 54.8028 129.976 42.7429C124.981 30.683 116.521 20.3752 105.668 13.123C94.814 5.87083 82.0536 2 69 2L69 7.28C81.0093 7.28 92.7489 10.8412 102.734 17.5132C112.72 24.1852 120.502 33.6683 125.098 44.7635C129.694 55.8586 130.896 68.0674 128.553 79.8459C126.21 91.6244 120.427 102.444 111.936 110.936C103.444 119.427 92.6244 125.21 80.8459 127.553C69.0674 129.896 56.8586 128.694 45.7635 124.098C34.6683 119.502 25.1852 111.72 18.5132 101.734C11.8412 91.7489 8.28 80.0093 8.28 68L3 68Z" fill="url(#paint0_linear_19_1986)"/>
</g>
<defs>
<filter id="filter0_bd_19_1986" x="-1" y="-2" width="140" height="140" filterUnits="userSpaceOnUse" color-interpolation-filters="sRGB">
<feFlood flood-opacity="0" result="BackgroundImageFix"/>
<feGaussianBlur in="BackgroundImage" stdDeviation="2"/>
<feComposite in2="SourceAlpha" operator="in" result="effect1_backgroundBlur_19_1986"/>
<feColorMatrix in="SourceAlpha" type="matrix" values="0 0 0 0 0 0 0 0 0 0 0 0 0 0 0 0 0 0 127 0" result="hardAlpha"/>
<feOffset/>
<feGaussianBlur stdDeviation="2"/>
<feComposite in2="hardAlpha" operator="out"/>
<feColorMatrix type="matrix" values="0 0 0 0 0.509804 0 0 0 0 0.368627 0 0 0 0 0.933333 0 0 0 1 0"/>
<feBlend mode="normal" in2="effect1_backgroundBlur_19_1986" result="effect2_dropShadow_19_1986"/>
<feBlend mode="normal" in="SourceGraphic" in2="effect2_dropShadow_19_1986" result="shape"/>
</filter>
<linearGradient id="paint0_linear_19_1986" x1="99.03" y1="12.23" x2="24.12" y2="114.86" gradientUnits="userSpaceOnUse">
<stop stop-color="#738DFC"/>
<stop offset="1" stop-color="#8F33E0"/>
</linearGradient>
</defs>
</svg>
