<svg width="12" height="11" viewBox="0 0 12 11" fill="none" xmlns="http://www.w3.org/2000/svg">
<path d="M5.28579 9.03097C6.20566 9.03097 7.05544 8.75063 7.76505 8.27755L10.3319 10.8444C10.5335 11.0459 10.8664 11.0459 11.0766 10.8444L11.5759 10.3451C11.7774 10.1436 11.7774 9.81066 11.5759 9.60041L9.0003 7.0423C9.47329 6.33269 9.75372 5.48291 9.75372 4.56305C9.75372 2.10131 7.74753 0.0951233 5.28579 0.0951233C2.82406 0.0951233 0.817871 2.10131 0.817871 4.56305C0.817871 7.0247 2.8153 9.03097 5.28579 9.03097ZM5.28579 1.84725C6.78386 1.84725 8.00159 3.06498 8.00159 4.56305C8.00159 6.06111 6.78386 7.27884 5.28579 7.27884C3.78773 7.27884 2.57 6.06111 2.57 4.56305C2.57 3.06498 3.78773 1.84725 5.28579 1.84725Z" fill="#9A98AC"/>
</svg>
