<svg width="20" height="18" viewBox="0 0 20 18" fill="none" xmlns="http://www.w3.org/2000/svg">
<path d="M18.0123 0.961466C18.0123 0.961466 19.8137 0.259057 19.6635 1.96491C19.6135 2.66733 19.1632 5.12576 18.8129 7.7849L17.612 15.6619C17.612 15.6619 17.5119 16.8159 16.6112 17.0166C15.7105 17.2173 14.3595 16.3142 14.1093 16.1135C13.9092 15.963 10.3565 13.7052 9.10551 12.6014C8.75523 12.3004 8.35493 11.6983 9.15554 10.9959L14.4096 5.97871C15.01 5.37663 15.6105 3.97181 13.1085 5.67767L6.10324 10.444C6.10324 10.444 5.30263 10.9457 3.80151 10.4942L0.54902 9.49076C0.54902 9.49076 -0.651895 8.73818 1.39967 7.98556C6.40349 5.62746 12.5582 3.21919 18.0123 0.961466Z" fill="#F5F5F5"/>
</svg>
