<svg width="18" height="11" viewBox="0 0 18 11" fill="none" xmlns="http://www.w3.org/2000/svg">
<path d="M14.081 8.75166L5.39843 8.75166C3.50862 8.75165 1.9711 7.21417 1.9711 5.32433C1.9711 3.43448 3.50859 1.897 5.39843 1.897L14.081 1.897C15.2149 1.897 16.1374 2.81949 16.1374 3.95339C16.1374 5.08729 15.2149 6.00977 14.081 6.00977L5.39843 6.00977C5.02047 6.00977 4.71296 5.70225 4.71296 5.3243C4.71296 4.94634 5.02044 4.63882 5.39843 4.63882L14.081 4.63882L14.081 3.26795L5.39843 3.26795C4.26453 3.26795 3.34205 4.19043 3.34205 5.32433C3.34205 6.45823 4.26453 7.38071 5.39843 7.38071L14.081 7.38071C15.9708 7.38071 17.5083 5.84323 17.5083 3.95342C17.5083 2.06361 15.9708 0.526092 14.081 0.526092L5.39843 0.526092C2.75267 0.526092 0.600193 2.67857 0.600193 5.32433C0.600193 7.97008 2.75267 10.1226 5.39843 10.1226L14.081 10.1226L14.081 8.75166Z" fill="#9A98AC"/>
</svg>
