<svg width="15" height="16" viewBox="0 0 15 16" fill="none" xmlns="http://www.w3.org/2000/svg">
<path d="M6.07041 12.9945C7.31015 12.9945 8.45543 12.5868 9.4118 11.8989L12.8713 15.6316C13.1429 15.9246 13.5916 15.9246 13.8749 15.6316L14.5479 14.9054C14.8194 14.6124 14.8194 14.1283 14.5479 13.8226L11.0766 10.1026C11.7141 9.07065 12.092 7.8349 12.092 6.49724C12.092 2.91739 9.38819 0 6.07041 0C2.75264 0 0.0488281 2.91739 0.0488281 6.49724C0.0488281 10.077 2.74083 12.9945 6.07041 12.9945ZM6.07041 2.54794C8.08941 2.54794 9.73059 4.31875 9.73059 6.49724C9.73059 8.67572 8.08941 10.4465 6.07041 10.4465C4.05141 10.4465 2.41023 8.67572 2.41023 6.49724C2.41023 4.31875 4.05141 2.54794 6.07041 2.54794Z" fill="#9A98AC"/>
</svg>
